<?xml version="1.0" standalone="no"?>
<!DOCTYPE svg PUBLIC "-//W3C//DTD SVG 20010904//EN"
 "http://www.w3.org/TR/2001/REC-SVG-20010904/DTD/svg10.dtd">
<svg version="1.0" xmlns="http://www.w3.org/2000/svg"
 width="700.000000pt" height="700.000000pt" viewBox="0 0 700.000000 700.000000"
 preserveAspectRatio="xMidYMid meet">
<metadata>
Created by potrace 1.14, written by Peter Selinger 2001-2017
</metadata>
<g transform="translate(0.000000,700.000000) scale(0.100000,-0.100000)"
fill="#000000" stroke="none">
<path d="M2765 6119 c-201 -27 -326 -77 -470 -189 -27 -22 -293 -282 -589
-579 l-539 -539 176 -176 c98 -97 177 -179 177 -181 0 -3 -132 -5 -293 -5
l-292 0 -103 -103 -102 -103 435 -434 c239 -239 439 -436 444 -438 6 -2 54 41
108 94 l98 98 1 285 c1 158 2 292 3 298 0 7 84 -70 184 -171 l184 -184 99 99
c54 54 102 98 107 96 12 -4 487 -479 487 -487 0 -3 -450 -456 -1000 -1006
-550 -549 -1000 -1002 -1000 -1005 0 -7 602 -609 609 -609 3 0 744 738 1645
1640 1178 1178 1643 1637 1651 1630 31 -26 174 -52 300 -55 145 -4 247 10 366
50 287 95 531 340 628 632 41 122 43 138 46 313 4 182 -9 261 -60 388 l-18 44
-362 -362 -362 -362 -262 263 -262 262 361 362 361 361 -78 27 c-224 78 -490
75 -707 -7 -88 -34 -135 -59 -222 -122 -208 -151 -360 -382 -401 -609 -18 -99
-21 -145 -18 -240 6 -142 4 -136 56 -312 4 -12 -636 -663 -651 -663 -7 0 -484
476 -487 487 -2 5 42 53 96 107 l99 99 -179 179 c-98 99 -179 182 -179 186 0
4 148 155 329 336 270 269 328 332 321 346 -13 24 -142 121 -211 159 -146 79
-366 122 -524 100z"/>
<path d="M4220 2775 l-304 -305 794 -795 c437 -437 799 -793 803 -792 11 3
607 599 607 606 0 7 -1584 1591 -1591 1591 -2 0 -141 -137 -309 -305z"/>
</g>
</svg>
